<mxfile host="app.diagrams.net" modified="2024-01-13T16:38:31.778Z" agent="Mozilla/5.0 (Windows NT 10.0; Win64; x64) AppleWebKit/537.36 (KHTML, like Gecko) Chrome/120.0.0.0 Safari/537.36" etag="MGz4OFmp51kbEgLdCZBd" version="22.1.18" type="device">
  <diagram name="Page-1" id="TU_e86cD7HlDVNo7tWtD">
    <mxGraphModel dx="1225" dy="686" grid="1" gridSize="10" guides="1" tooltips="1" connect="1" arrows="1" fold="1" page="1" pageScale="1" pageWidth="1400" pageHeight="850" math="0" shadow="0">
      <root>
        <mxCell id="0" />
        <mxCell id="1" parent="0" />
        <mxCell id="VikP2BaN7h12U_7TFMxp-39" value="" style="rounded=0;whiteSpace=wrap;html=1;fillColor=none;movable=1;resizable=1;rotatable=1;deletable=1;editable=1;locked=0;connectable=1;" vertex="1" parent="1">
          <mxGeometry x="320" y="25" width="180" height="100" as="geometry" />
        </mxCell>
        <mxCell id="VikP2BaN7h12U_7TFMxp-36" value="" style="rounded=0;whiteSpace=wrap;html=1;fillColor=none;movable=1;resizable=1;rotatable=1;deletable=1;editable=1;locked=0;connectable=1;" vertex="1" parent="1">
          <mxGeometry x="850" y="20" width="180" height="110" as="geometry" />
        </mxCell>
        <mxCell id="VikP2BaN7h12U_7TFMxp-16" value="" style="rounded=0;whiteSpace=wrap;html=1;fillColor=none;movable=1;resizable=1;rotatable=1;deletable=1;editable=1;locked=0;connectable=1;" vertex="1" parent="1">
          <mxGeometry x="545" y="469" width="260" height="110" as="geometry" />
        </mxCell>
        <mxCell id="VikP2BaN7h12U_7TFMxp-77" style="edgeStyle=orthogonalEdgeStyle;rounded=0;orthogonalLoop=1;jettySize=auto;html=1;entryX=1;entryY=0.75;entryDx=0;entryDy=0;" edge="1" parent="1" source="VikP2BaN7h12U_7TFMxp-6" target="VikP2BaN7h12U_7TFMxp-73">
          <mxGeometry relative="1" as="geometry">
            <Array as="points">
              <mxPoint x="830" y="537" />
              <mxPoint x="830" y="403" />
              <mxPoint x="730" y="403" />
            </Array>
          </mxGeometry>
        </mxCell>
        <mxCell id="VikP2BaN7h12U_7TFMxp-6" value="&lt;font style=&quot;font-size: 14px;&quot;&gt;UI Manager Local&lt;/font&gt;" style="html=1;whiteSpace=wrap;movable=1;resizable=1;rotatable=1;deletable=1;editable=1;locked=0;connectable=1;" vertex="1" parent="1">
          <mxGeometry x="685" y="512" width="110" height="50" as="geometry" />
        </mxCell>
        <mxCell id="VikP2BaN7h12U_7TFMxp-76" style="edgeStyle=orthogonalEdgeStyle;rounded=0;orthogonalLoop=1;jettySize=auto;html=1;entryX=0;entryY=0.5;entryDx=0;entryDy=0;" edge="1" parent="1" source="VikP2BaN7h12U_7TFMxp-5" target="VikP2BaN7h12U_7TFMxp-73">
          <mxGeometry relative="1" as="geometry">
            <Array as="points">
              <mxPoint x="520" y="537" />
              <mxPoint x="520" y="390" />
            </Array>
          </mxGeometry>
        </mxCell>
        <mxCell id="VikP2BaN7h12U_7TFMxp-5" value="&lt;font style=&quot;font-size: 14px;&quot;&gt;UI Manager Global&lt;/font&gt;" style="html=1;whiteSpace=wrap;movable=1;resizable=1;rotatable=1;deletable=1;editable=1;locked=0;connectable=1;" vertex="1" parent="1">
          <mxGeometry x="555" y="512" width="110" height="50" as="geometry" />
        </mxCell>
        <mxCell id="VikP2BaN7h12U_7TFMxp-69" style="edgeStyle=orthogonalEdgeStyle;rounded=0;orthogonalLoop=1;jettySize=auto;html=1;entryX=0.5;entryY=1;entryDx=0;entryDy=0;" edge="1" parent="1" source="VikP2BaN7h12U_7TFMxp-12" target="VikP2BaN7h12U_7TFMxp-67">
          <mxGeometry relative="1" as="geometry" />
        </mxCell>
        <mxCell id="VikP2BaN7h12U_7TFMxp-12" value="User" style="shape=umlActor;verticalLabelPosition=bottom;verticalAlign=top;html=1;" vertex="1" parent="1">
          <mxGeometry x="660" y="769" width="30" height="60" as="geometry" />
        </mxCell>
        <mxCell id="VikP2BaN7h12U_7TFMxp-19" value="Graphical User Interface Callbacks" style="text;html=1;strokeColor=none;fillColor=none;align=center;verticalAlign=middle;whiteSpace=wrap;rounded=0;movable=1;resizable=1;rotatable=1;deletable=1;editable=1;locked=0;connectable=1;" vertex="1" parent="1">
          <mxGeometry x="575" y="476" width="200" height="30" as="geometry" />
        </mxCell>
        <mxCell id="VikP2BaN7h12U_7TFMxp-27" value="" style="rounded=0;whiteSpace=wrap;html=1;fillColor=none;movable=1;resizable=1;rotatable=1;deletable=1;editable=1;locked=0;connectable=1;" vertex="1" parent="1">
          <mxGeometry x="585" y="183" width="180" height="102" as="geometry" />
        </mxCell>
        <mxCell id="VikP2BaN7h12U_7TFMxp-62" style="edgeStyle=orthogonalEdgeStyle;rounded=0;orthogonalLoop=1;jettySize=auto;html=1;exitX=1;exitY=0.75;exitDx=0;exitDy=0;entryX=0.5;entryY=1;entryDx=0;entryDy=0;" edge="1" parent="1" source="VikP2BaN7h12U_7TFMxp-26" target="VikP2BaN7h12U_7TFMxp-9">
          <mxGeometry relative="1" as="geometry" />
        </mxCell>
        <mxCell id="VikP2BaN7h12U_7TFMxp-79" style="edgeStyle=orthogonalEdgeStyle;rounded=0;orthogonalLoop=1;jettySize=auto;html=1;entryX=0.5;entryY=1;entryDx=0;entryDy=0;" edge="1" parent="1" source="VikP2BaN7h12U_7TFMxp-26" target="VikP2BaN7h12U_7TFMxp-30">
          <mxGeometry relative="1" as="geometry">
            <Array as="points">
              <mxPoint x="570" y="248" />
              <mxPoint x="570" y="155" />
              <mxPoint x="610" y="155" />
            </Array>
          </mxGeometry>
        </mxCell>
        <mxCell id="VikP2BaN7h12U_7TFMxp-80" style="edgeStyle=orthogonalEdgeStyle;rounded=0;orthogonalLoop=1;jettySize=auto;html=1;entryX=0.5;entryY=1;entryDx=0;entryDy=0;exitX=1;exitY=0.25;exitDx=0;exitDy=0;" edge="1" parent="1" source="VikP2BaN7h12U_7TFMxp-26" target="VikP2BaN7h12U_7TFMxp-29">
          <mxGeometry relative="1" as="geometry">
            <Array as="points">
              <mxPoint x="780" y="235" />
              <mxPoint x="780" y="155" />
              <mxPoint x="740" y="155" />
            </Array>
          </mxGeometry>
        </mxCell>
        <mxCell id="VikP2BaN7h12U_7TFMxp-26" value="&lt;font style=&quot;font-size: 14px;&quot;&gt;Game Manager&lt;/font&gt;" style="html=1;whiteSpace=wrap;movable=1;resizable=1;rotatable=1;deletable=1;editable=1;locked=0;connectable=1;" vertex="1" parent="1">
          <mxGeometry x="620" y="223" width="110" height="50" as="geometry" />
        </mxCell>
        <mxCell id="VikP2BaN7h12U_7TFMxp-28" value="Local Scene Game Manager" style="text;html=1;strokeColor=none;fillColor=none;align=center;verticalAlign=middle;whiteSpace=wrap;rounded=0;movable=1;resizable=1;rotatable=1;deletable=1;editable=1;locked=0;connectable=1;" vertex="1" parent="1">
          <mxGeometry x="585" y="188" width="180" height="30" as="geometry" />
        </mxCell>
        <mxCell id="VikP2BaN7h12U_7TFMxp-31" value="" style="rounded=0;whiteSpace=wrap;html=1;fillColor=none;movable=1;resizable=1;rotatable=1;deletable=1;editable=1;locked=0;connectable=1;" vertex="1" parent="1">
          <mxGeometry x="545" y="23" width="260" height="110" as="geometry" />
        </mxCell>
        <mxCell id="VikP2BaN7h12U_7TFMxp-60" style="edgeStyle=orthogonalEdgeStyle;rounded=0;orthogonalLoop=1;jettySize=auto;html=1;" edge="1" parent="1" source="VikP2BaN7h12U_7TFMxp-29" target="VikP2BaN7h12U_7TFMxp-9">
          <mxGeometry relative="1" as="geometry">
            <Array as="points">
              <mxPoint x="870" y="90" />
              <mxPoint x="870" y="90" />
            </Array>
          </mxGeometry>
        </mxCell>
        <mxCell id="VikP2BaN7h12U_7TFMxp-29" value="&lt;font style=&quot;font-size: 14px;&quot;&gt;Game Coordinator&lt;/font&gt;" style="html=1;whiteSpace=wrap;" vertex="1" parent="1">
          <mxGeometry x="685" y="65" width="110" height="50" as="geometry" />
        </mxCell>
        <mxCell id="VikP2BaN7h12U_7TFMxp-32" value="Matchmaking" style="text;html=1;strokeColor=none;fillColor=none;align=center;verticalAlign=middle;whiteSpace=wrap;rounded=0;" vertex="1" parent="1">
          <mxGeometry x="555" y="30" width="80" height="30" as="geometry" />
        </mxCell>
        <mxCell id="VikP2BaN7h12U_7TFMxp-61" style="edgeStyle=orthogonalEdgeStyle;rounded=0;orthogonalLoop=1;jettySize=auto;html=1;entryX=1;entryY=0.5;entryDx=0;entryDy=0;" edge="1" parent="1" source="VikP2BaN7h12U_7TFMxp-30" target="VikP2BaN7h12U_7TFMxp-10">
          <mxGeometry relative="1" as="geometry">
            <mxPoint x="510" y="95" as="targetPoint" />
          </mxGeometry>
        </mxCell>
        <mxCell id="VikP2BaN7h12U_7TFMxp-30" value="&lt;font style=&quot;font-size: 14px;&quot;&gt;Lobby Manager&lt;/font&gt;" style="html=1;whiteSpace=wrap;" vertex="1" parent="1">
          <mxGeometry x="555" y="65" width="110" height="50" as="geometry" />
        </mxCell>
        <mxCell id="VikP2BaN7h12U_7TFMxp-37" value="Network Transport Layer" style="text;html=1;strokeColor=none;fillColor=none;align=center;verticalAlign=middle;whiteSpace=wrap;rounded=0;" vertex="1" parent="1">
          <mxGeometry x="850" y="25" width="180" height="30" as="geometry" />
        </mxCell>
        <mxCell id="VikP2BaN7h12U_7TFMxp-40" value="Unity Services API" style="text;html=1;strokeColor=none;fillColor=none;align=center;verticalAlign=middle;whiteSpace=wrap;rounded=0;" vertex="1" parent="1">
          <mxGeometry x="320" y="30" width="180" height="30" as="geometry" />
        </mxCell>
        <mxCell id="VikP2BaN7h12U_7TFMxp-9" value="&lt;font style=&quot;font-size: 14px;&quot;&gt;Network Manager&lt;/font&gt;" style="html=1;whiteSpace=wrap;" vertex="1" parent="1">
          <mxGeometry x="885" y="60" width="110" height="50" as="geometry" />
        </mxCell>
        <mxCell id="VikP2BaN7h12U_7TFMxp-10" value="&lt;font style=&quot;font-size: 14px;&quot;&gt;Unity Services&lt;/font&gt;" style="html=1;whiteSpace=wrap;" vertex="1" parent="1">
          <mxGeometry x="355" y="65" width="110" height="50" as="geometry" />
        </mxCell>
        <mxCell id="VikP2BaN7h12U_7TFMxp-66" value="" style="rounded=0;whiteSpace=wrap;html=1;fillColor=none;movable=1;resizable=1;rotatable=1;deletable=1;editable=1;locked=0;connectable=1;" vertex="1" parent="1">
          <mxGeometry x="585" y="619" width="180" height="110" as="geometry" />
        </mxCell>
        <mxCell id="VikP2BaN7h12U_7TFMxp-70" style="edgeStyle=orthogonalEdgeStyle;rounded=0;orthogonalLoop=1;jettySize=auto;html=1;exitX=1;exitY=0.5;exitDx=0;exitDy=0;entryX=0.5;entryY=1;entryDx=0;entryDy=0;" edge="1" parent="1" source="VikP2BaN7h12U_7TFMxp-67" target="VikP2BaN7h12U_7TFMxp-6">
          <mxGeometry relative="1" as="geometry">
            <Array as="points">
              <mxPoint x="790" y="686" />
              <mxPoint x="790" y="599" />
              <mxPoint x="740" y="599" />
            </Array>
          </mxGeometry>
        </mxCell>
        <mxCell id="VikP2BaN7h12U_7TFMxp-71" style="edgeStyle=orthogonalEdgeStyle;rounded=0;orthogonalLoop=1;jettySize=auto;html=1;exitX=0;exitY=0.5;exitDx=0;exitDy=0;entryX=0.5;entryY=1;entryDx=0;entryDy=0;" edge="1" parent="1" source="VikP2BaN7h12U_7TFMxp-67" target="VikP2BaN7h12U_7TFMxp-5">
          <mxGeometry relative="1" as="geometry">
            <Array as="points">
              <mxPoint x="560" y="686" />
              <mxPoint x="560" y="599" />
              <mxPoint x="610" y="599" />
            </Array>
          </mxGeometry>
        </mxCell>
        <mxCell id="VikP2BaN7h12U_7TFMxp-67" value="&lt;font style=&quot;font-size: 14px;&quot;&gt;Input Manager&lt;/font&gt;" style="html=1;whiteSpace=wrap;movable=1;resizable=1;rotatable=1;deletable=1;editable=1;locked=0;connectable=1;" vertex="1" parent="1">
          <mxGeometry x="620" y="661" width="110" height="50" as="geometry" />
        </mxCell>
        <mxCell id="VikP2BaN7h12U_7TFMxp-68" value="Local Scene Input Manager" style="text;html=1;strokeColor=none;fillColor=none;align=center;verticalAlign=middle;whiteSpace=wrap;rounded=0;movable=1;resizable=1;rotatable=1;deletable=1;editable=1;locked=0;connectable=1;" vertex="1" parent="1">
          <mxGeometry x="585" y="624" width="180" height="30" as="geometry" />
        </mxCell>
        <mxCell id="VikP2BaN7h12U_7TFMxp-72" value="" style="rounded=0;whiteSpace=wrap;html=1;fillColor=none;movable=1;resizable=1;rotatable=1;deletable=1;editable=1;locked=0;connectable=1;" vertex="1" parent="1">
          <mxGeometry x="585" y="325" width="180" height="100" as="geometry" />
        </mxCell>
        <mxCell id="VikP2BaN7h12U_7TFMxp-82" style="edgeStyle=orthogonalEdgeStyle;rounded=0;orthogonalLoop=1;jettySize=auto;html=1;entryX=0.5;entryY=1;entryDx=0;entryDy=0;" edge="1" parent="1" source="VikP2BaN7h12U_7TFMxp-73" target="VikP2BaN7h12U_7TFMxp-26">
          <mxGeometry relative="1" as="geometry">
            <Array as="points">
              <mxPoint x="780" y="390" />
              <mxPoint x="780" y="305" />
              <mxPoint x="675" y="305" />
            </Array>
          </mxGeometry>
        </mxCell>
        <mxCell id="VikP2BaN7h12U_7TFMxp-73" value="&lt;font style=&quot;font-size: 14px;&quot;&gt;Event Manager&lt;/font&gt;" style="html=1;whiteSpace=wrap;movable=1;resizable=1;rotatable=1;deletable=1;editable=1;locked=0;connectable=1;" vertex="1" parent="1">
          <mxGeometry x="620" y="365" width="110" height="50" as="geometry" />
        </mxCell>
        <mxCell id="VikP2BaN7h12U_7TFMxp-74" value="Internal Events System" style="text;html=1;strokeColor=none;fillColor=none;align=center;verticalAlign=middle;whiteSpace=wrap;rounded=0;movable=1;resizable=1;rotatable=1;deletable=1;editable=1;locked=0;connectable=1;" vertex="1" parent="1">
          <mxGeometry x="583" y="330" width="180" height="30" as="geometry" />
        </mxCell>
      </root>
    </mxGraphModel>
  </diagram>
</mxfile>
